<svg id="svg" version="1.1" xmlns="http://www.w3.org/2000/svg" xmlns:xlink="http://www.w3.org/1999/xlink" width="400" height="400" viewBox="0, 0, 400,400"><g id="svgg"><path id="path0" d="M192.400 49.954 C 192.400 50.149,191.413 50.431,190.206 50.582 C 189.000 50.733,187.909 51.023,187.783 51.228 C 187.656 51.433,187.203 51.600,186.776 51.600 C 186.349 51.600,186.000 51.757,186.000 51.949 C 186.000 52.141,185.280 52.413,184.400 52.554 C 183.520 52.694,182.800 52.987,182.800 53.205 C 182.800 53.422,182.530 53.600,182.200 53.600 C 181.870 53.600,181.600 53.780,181.600 54.000 C 181.600 54.220,181.234 54.400,180.787 54.400 C 180.341 54.400,179.878 54.654,179.759 54.964 C 179.639 55.274,179.105 55.637,178.571 55.772 C 178.037 55.906,177.600 56.192,177.600 56.408 C 177.600 56.623,177.411 56.800,177.180 56.800 C 176.949 56.800,176.112 57.430,175.319 58.200 C 174.526 58.970,173.752 59.600,173.600 59.600 C 173.447 59.600,172.907 59.960,172.400 60.400 C 171.893 60.840,171.247 61.200,170.966 61.200 C 170.684 61.200,170.343 61.551,170.206 61.980 C 170.070 62.408,169.608 62.870,169.180 63.006 C 168.751 63.143,168.400 63.422,168.400 63.627 C 168.400 63.832,168.196 64.000,167.946 64.000 C 167.696 64.000,167.075 64.450,166.565 65.000 C 166.055 65.550,165.469 66.000,165.261 66.000 C 165.054 66.000,164.307 66.540,163.600 67.200 C 162.893 67.860,162.077 68.400,161.785 68.400 C 161.493 68.400,161.143 68.751,161.006 69.180 C 160.870 69.608,160.363 70.083,159.880 70.235 C 159.396 70.387,158.604 70.936,158.119 71.456 C 157.635 71.975,157.034 72.400,156.785 72.400 C 156.536 72.400,155.774 73.030,155.092 73.800 C 154.411 74.570,153.610 75.200,153.314 75.200 C 153.017 75.200,152.674 75.463,152.550 75.785 C 152.427 76.106,151.969 76.483,151.533 76.621 C 151.096 76.760,150.107 77.487,149.335 78.237 C 148.563 78.986,147.775 79.600,147.584 79.600 C 147.393 79.600,146.786 80.050,146.236 80.600 C 145.686 81.150,145.073 81.600,144.874 81.600 C 144.675 81.600,144.174 82.050,143.761 82.600 C 143.348 83.150,142.810 83.600,142.566 83.600 C 142.322 83.600,141.690 83.975,141.161 84.434 C 140.633 84.893,139.689 85.658,139.065 86.134 C 138.441 86.610,137.689 87.225,137.394 87.500 C 137.099 87.775,136.740 88.000,136.598 88.000 C 136.455 88.000,135.798 88.540,135.138 89.200 C 134.478 89.860,133.725 90.400,133.464 90.400 C 133.203 90.400,132.652 90.850,132.239 91.400 C 131.826 91.950,131.253 92.400,130.967 92.400 C 130.680 92.400,130.210 92.718,129.923 93.107 C 129.635 93.496,128.860 94.149,128.200 94.559 C 127.540 94.969,126.640 95.705,126.200 96.195 C 125.760 96.685,125.004 97.210,124.520 97.363 C 124.037 97.516,123.530 97.992,123.394 98.420 C 123.257 98.849,122.843 99.205,122.473 99.211 C 122.103 99.217,121.275 99.757,120.633 100.411 C 119.992 101.065,119.308 101.600,119.114 101.600 C 118.920 101.600,118.345 102.050,117.835 102.600 C 117.325 103.150,116.780 103.600,116.623 103.600 C 116.467 103.600,115.798 104.140,115.138 104.800 C 114.478 105.460,113.764 106.000,113.551 106.000 C 113.338 106.000,112.714 106.450,112.164 107.000 C 111.614 107.550,110.914 108.000,110.609 108.000 C 110.304 108.000,109.943 108.351,109.806 108.780 C 109.670 109.208,109.172 109.682,108.698 109.832 C 108.225 109.983,107.616 110.307,107.345 110.553 C 107.074 110.799,106.303 111.450,105.631 112.000 C 104.959 112.550,103.965 113.405,103.423 113.900 C 102.880 114.395,102.262 114.800,102.049 114.800 C 101.836 114.800,101.122 115.340,100.462 116.000 C 99.802 116.660,99.133 117.200,98.977 117.200 C 98.820 117.200,98.275 117.650,97.765 118.200 C 97.255 118.750,96.656 119.200,96.433 119.200 C 96.210 119.200,95.475 119.740,94.800 120.400 C 94.125 121.060,93.321 121.600,93.013 121.600 C 92.706 121.600,92.340 121.960,92.200 122.399 C 92.061 122.839,91.543 123.299,91.050 123.423 C 90.557 123.547,89.824 124.087,89.421 124.624 C 89.018 125.161,88.440 125.600,88.137 125.600 C 87.834 125.600,87.004 126.195,86.293 126.923 C 85.582 127.651,84.685 128.365,84.300 128.511 C 83.915 128.656,83.600 128.948,83.600 129.160 C 83.600 129.373,83.210 129.670,82.734 129.821 C 82.258 129.972,81.482 130.479,81.010 130.948 C 80.538 131.417,79.563 132.250,78.842 132.800 C 78.121 133.350,77.289 134.025,76.994 134.300 C 76.699 134.575,76.289 134.800,76.085 134.800 C 75.880 134.800,75.374 135.250,74.961 135.800 C 74.548 136.350,73.984 136.800,73.709 136.800 C 73.433 136.800,72.691 137.340,72.060 138.000 C 71.429 138.660,70.785 139.200,70.628 139.200 C 70.471 139.200,70.092 139.425,69.785 139.700 C 68.583 140.778,68.024 141.200,67.797 141.200 C 67.667 141.200,66.912 141.830,66.119 142.600 C 65.326 143.370,64.541 144.000,64.374 144.000 C 64.110 144.000,60.642 147.347,59.337 148.863 C 59.082 149.158,58.416 149.760,57.855 150.200 C 57.295 150.640,56.829 151.126,56.818 151.280 C 56.808 151.434,56.260 152.360,55.600 153.338 C 54.940 154.316,54.400 155.315,54.400 155.558 C 54.400 155.801,54.220 156.000,54.000 156.000 C 53.780 156.000,53.600 156.360,53.600 156.800 C 53.600 157.240,53.434 157.600,53.232 157.600 C 53.029 157.600,52.745 158.138,52.601 158.795 C 52.457 159.453,52.172 160.094,51.969 160.219 C 51.766 160.345,51.600 160.797,51.600 161.224 C 51.600 161.651,51.441 162.000,51.247 162.000 C 51.052 162.000,50.768 163.170,50.615 164.600 C 50.462 166.030,50.171 167.200,49.968 167.200 C 49.745 167.200,49.600 197.338,49.600 243.600 C 49.600 288.721,49.748 320.000,49.961 320.000 C 50.159 320.000,50.447 321.080,50.600 322.400 C 50.753 323.720,51.041 324.800,51.239 324.800 C 51.438 324.800,51.600 325.149,51.600 325.576 C 51.600 326.003,51.760 326.451,51.955 326.572 C 52.150 326.693,52.428 327.423,52.573 328.196 C 52.718 328.968,53.008 329.600,53.218 329.600 C 53.428 329.600,53.600 329.870,53.600 330.200 C 53.600 330.530,53.780 330.800,54.000 330.800 C 54.220 330.800,54.400 331.057,54.400 331.371 C 54.400 331.686,54.646 332.189,54.947 332.490 C 55.248 332.791,55.620 333.434,55.774 333.919 C 55.928 334.403,56.222 334.800,56.427 334.800 C 56.632 334.800,56.800 334.994,56.800 335.231 C 56.800 336.030,63.970 343.200,64.769 343.200 C 65.006 343.200,65.200 343.368,65.200 343.573 C 65.200 343.778,65.597 344.072,66.081 344.226 C 66.566 344.380,67.209 344.752,67.510 345.053 C 67.811 345.354,68.314 345.600,68.629 345.600 C 68.943 345.600,69.200 345.780,69.200 346.000 C 69.200 346.220,69.470 346.400,69.800 346.400 C 70.130 346.400,70.400 346.572,70.400 346.782 C 70.400 346.992,71.032 347.282,71.804 347.427 C 72.577 347.572,73.307 347.850,73.428 348.045 C 73.549 348.240,73.997 348.400,74.424 348.400 C 74.851 348.400,75.200 348.562,75.200 348.761 C 75.200 348.959,76.280 349.247,77.601 349.400 C 78.921 349.553,80.102 349.841,80.224 350.039 C 80.522 350.522,320.000 350.522,320.000 350.039 C 320.000 349.841,321.080 349.553,322.400 349.400 C 323.720 349.247,324.800 348.959,324.800 348.761 C 324.800 348.562,325.250 348.400,325.800 348.400 C 326.350 348.400,326.800 348.240,326.800 348.045 C 326.800 347.849,327.430 347.571,328.200 347.426 C 328.970 347.282,329.600 346.992,329.600 346.782 C 329.600 346.572,329.855 346.400,330.167 346.400 C 330.478 346.400,330.793 346.265,330.867 346.100 C 330.940 345.935,331.855 345.354,332.900 344.808 C 333.945 344.263,334.800 343.678,334.800 343.508 C 334.800 343.339,334.994 343.200,335.231 343.200 C 336.030 343.200,343.200 336.030,343.200 335.231 C 343.200 334.994,343.339 334.800,343.508 334.800 C 343.678 334.800,344.263 333.945,344.808 332.900 C 345.354 331.855,345.935 330.940,346.100 330.867 C 346.265 330.793,346.400 330.478,346.400 330.167 C 346.400 329.855,346.572 329.600,346.782 329.600 C 346.992 329.600,347.282 328.968,347.427 328.196 C 347.572 327.423,347.850 326.693,348.045 326.572 C 348.240 326.451,348.400 326.003,348.400 325.576 C 348.400 325.149,348.562 324.800,348.761 324.800 C 348.959 324.800,349.247 323.720,349.400 322.400 C 349.553 321.080,349.841 320.000,350.039 320.000 C 350.252 320.000,350.400 288.721,350.400 243.600 C 350.400 197.338,350.255 167.200,350.032 167.200 C 349.829 167.200,349.538 166.030,349.385 164.600 C 349.232 163.170,348.948 162.000,348.753 162.000 C 348.559 162.000,348.400 161.651,348.400 161.224 C 348.400 160.797,348.234 160.345,348.031 160.219 C 347.828 160.094,347.543 159.453,347.399 158.795 C 347.255 158.138,346.971 157.600,346.768 157.600 C 346.566 157.600,346.400 157.240,346.400 156.800 C 346.400 156.360,346.241 156.000,346.047 156.000 C 345.852 156.000,345.584 155.685,345.451 155.300 C 345.318 154.915,344.849 154.060,344.409 153.400 C 343.969 152.740,343.482 151.934,343.327 151.609 C 343.171 151.284,342.584 150.613,342.022 150.118 C 341.460 149.623,340.844 149.055,340.653 148.855 C 337.503 145.560,335.890 144.000,335.635 144.000 C 335.463 144.000,334.674 143.370,333.881 142.600 C 333.088 141.830,332.328 141.200,332.191 141.200 C 332.055 141.200,331.708 140.975,331.420 140.700 C 331.133 140.425,330.496 139.930,330.005 139.600 C 329.514 139.270,328.572 138.505,327.913 137.900 C 327.255 137.295,326.507 136.800,326.253 136.800 C 325.998 136.800,325.452 136.350,325.039 135.800 C 324.626 135.250,324.120 134.800,323.915 134.800 C 323.711 134.800,323.301 134.575,323.006 134.300 C 322.711 134.025,321.879 133.350,321.158 132.800 C 320.437 132.250,319.440 131.395,318.942 130.900 C 318.444 130.405,317.887 130.000,317.704 130.000 C 317.352 130.000,315.486 128.519,313.545 126.700 C 312.900 126.095,312.134 125.600,311.842 125.600 C 311.551 125.600,310.982 125.161,310.579 124.624 C 310.176 124.087,309.443 123.547,308.950 123.423 C 308.457 123.299,307.942 122.848,307.806 122.420 C 307.670 121.991,307.163 121.517,306.680 121.365 C 306.196 121.213,305.404 120.664,304.919 120.144 C 304.435 119.625,303.856 119.200,303.633 119.200 C 303.410 119.200,302.700 118.705,302.055 118.100 C 300.114 116.281,298.248 114.800,297.896 114.800 C 297.713 114.800,297.120 114.395,296.577 113.900 C 296.035 113.405,295.041 112.550,294.369 112.000 C 293.697 111.450,292.926 110.799,292.655 110.553 C 292.384 110.307,291.775 109.983,291.302 109.832 C 290.828 109.682,290.330 109.208,290.194 108.780 C 290.057 108.351,289.707 108.000,289.415 108.000 C 289.123 108.000,288.307 107.460,287.600 106.800 C 286.893 106.140,286.146 105.600,285.939 105.600 C 285.731 105.600,285.145 105.150,284.635 104.600 C 284.125 104.050,283.570 103.600,283.400 103.600 C 283.230 103.600,282.675 103.150,282.165 102.600 C 281.655 102.050,281.080 101.600,280.886 101.600 C 280.692 101.600,280.008 101.065,279.367 100.411 C 278.725 99.757,277.897 99.217,277.527 99.211 C 277.157 99.205,276.743 98.849,276.606 98.420 C 276.470 97.992,276.031 97.537,275.629 97.409 C 275.228 97.282,274.256 96.553,273.470 95.789 C 272.683 95.025,271.850 94.400,271.617 94.400 C 271.385 94.400,270.803 93.950,270.325 93.400 C 269.847 92.850,269.283 92.400,269.071 92.400 C 268.860 92.400,268.171 91.860,267.540 91.200 C 266.909 90.540,266.206 90.000,265.977 90.000 C 265.749 90.000,265.145 89.550,264.635 89.000 C 264.125 88.450,263.581 88.000,263.426 88.000 C 263.270 88.000,262.901 87.775,262.606 87.500 C 262.311 87.225,261.559 86.610,260.935 86.134 C 260.311 85.658,259.367 84.893,258.839 84.434 C 258.310 83.975,257.678 83.600,257.434 83.600 C 257.190 83.600,256.652 83.150,256.239 82.600 C 255.826 82.050,255.318 81.600,255.111 81.600 C 254.903 81.600,254.121 80.970,253.374 80.200 C 252.626 79.430,251.766 78.800,251.463 78.800 C 251.160 78.800,250.574 78.350,250.161 77.800 C 249.748 77.250,249.222 76.800,248.991 76.800 C 248.562 76.800,246.826 75.451,244.745 73.500 C 244.100 72.895,243.390 72.400,243.167 72.400 C 242.944 72.400,242.365 71.975,241.881 71.456 C 241.396 70.936,240.604 70.387,240.120 70.235 C 239.637 70.083,239.133 69.617,239.000 69.200 C 238.867 68.783,238.379 68.320,237.913 68.173 C 237.448 68.025,236.639 67.476,236.116 66.952 C 235.592 66.428,235.005 66.000,234.810 66.000 C 234.616 66.000,233.796 65.376,232.987 64.614 C 232.179 63.851,231.185 63.122,230.779 62.993 C 230.373 62.865,229.930 62.408,229.794 61.980 C 229.657 61.551,229.316 61.200,229.034 61.200 C 228.753 61.200,228.090 60.842,227.561 60.406 C 227.033 59.969,226.096 59.204,225.480 58.706 C 224.865 58.207,224.113 57.575,223.809 57.300 C 223.505 57.025,223.064 56.800,222.829 56.800 C 222.593 56.800,222.400 56.623,222.400 56.408 C 222.400 56.192,221.963 55.906,221.429 55.772 C 220.895 55.637,220.361 55.274,220.241 54.964 C 220.122 54.654,219.659 54.400,219.213 54.400 C 218.766 54.400,218.400 54.220,218.400 54.000 C 218.400 53.780,218.130 53.600,217.800 53.600 C 217.470 53.600,217.200 53.422,217.200 53.205 C 217.200 52.987,216.480 52.694,215.600 52.554 C 214.720 52.413,214.000 52.141,214.000 51.949 C 214.000 51.757,213.730 51.600,213.400 51.600 C 213.070 51.600,212.800 51.441,212.800 51.247 C 212.800 51.052,211.630 50.768,210.200 50.615 C 208.770 50.462,207.600 50.171,207.600 49.968 C 207.600 49.757,204.362 49.600,200.000 49.600 C 195.820 49.600,192.400 49.759,192.400 49.954 " stroke="none" fill="#04b4bc" fill-rule="evenodd"></path><path id="path1" d="" stroke="none" fill="#08b4bc" fill-rule="evenodd"></path><path id="path2" d="" stroke="none" fill="#08b4bc" fill-rule="evenodd"></path><path id="path3" d="" stroke="none" fill="#08b4bc" fill-rule="evenodd"></path><path id="path4" d="" stroke="none" fill="#08b4bc" fill-rule="evenodd"></path></g></svg>